<svg xmlns="http://www.w3.org/2000/svg" xmlns:xlink="http://www.w3.org/1999/xlink" id="Layer_1" x="0" y="0" version="1.1" viewBox="0 0 18 18" xml:space="preserve" style="enable-background:new 0 0 18 18"><style type="text/css">.st0{fill:#cacaca}</style><path d="M17.7,0.3c-0.4-0.4-1-0.4-1.4,0L9,7.5L1.8,0.3c-0.4-0.4-1-0.4-1.4,0c-0.4,0.4-0.4,1,0,1.4L7.6,9l-7.2,7.2	c-0.4,0.4-0.4,1,0,1.4c0.4,0.4,1,0.4,1.4,0L9,10.4l7.2,7.2c0.4,0.4,1,0.4,1.4,0c0.4-0.4,0.4-1,0-1.4L10.4,9l7.2-7.2	C18.1,1.3,18.1,0.7,17.7,0.3z" class="st0"/></svg>